<svg xmlns="http://www.w3.org/2000/svg" width="1200" height="480" viewBox="0 0 1200 480">
<defs><linearGradient id="bg" x1="0" y1="0" x2="1" y2="1"><stop stop-color="#006B6B"/><stop offset="1" stop-color="#0F9F9A"/></linearGradient></defs>
<rect width="1200" height="480" rx="28" fill="url(#bg)"/>
<circle cx="1080" cy="-40" r="250" fill="#fff" opacity=".06"/><circle cx="1120" cy="440" r="220" fill="#fff" opacity=".05"/>
<g font-family="Inter,Arial,sans-serif">
<text x="68" y="92" fill="#fff" font-size="16" font-weight="700" letter-spacing="2">RENT A NUMBER</text>
<text x="68" y="160" fill="#fff" font-size="48" font-weight="800">Rent a Number</text>
<text x="68" y="212" fill="#fff" opacity=".82" font-size="23" font-weight="500">Call, SMS &amp; manage numbers from one hub</text>
<rect x="68" y="274" width="140" height="54" rx="27" fill="#fff"/>
<text x="92" y="309" fill="#006B6B" font-size="18" font-weight="800">Open Hub</text>
<text x="68" y="405" fill="#fff" opacity=".55" font-size="14" font-weight="600">Verxor · Digital services</text></g><g transform="translate(855 55)"><circle cx="145" cy="170" r="145" fill="#fff" opacity=".1"/><path d="M45 176c0-72 44-120 100-120s100 48 100 120" fill="none" stroke="#fff" stroke-width="21" stroke-linecap="round"/><rect x="25" y="164" width="58" height="102" rx="26" fill="#fff"/><rect x="207" y="164" width="58" height="102" rx="26" fill="#fff"/><path d="M207 245c-18 54-63 78-113 65" fill="none" stroke="#fff" stroke-width="15" stroke-linecap="round"/><circle cx="94" cy="302" r="11" fill="#FFFFFF"/></g></svg>