<svg xmlns="http://www.w3.org/2000/svg" width="1200" height="480" viewBox="0 0 1200 480" role="img" aria-label="Abstract silver architectural technology background">
<defs>
  <linearGradient id="surface" x1="0" y1="0" x2="1" y2="1"><stop stop-color="#737b84"/><stop offset=".48" stop-color="#343b44"/><stop offset="1" stop-color="#111820"/></linearGradient>
  <linearGradient id="metal" x1="0" y1="0" x2="1" y2="1"><stop stop-color="#f1f4f6" stop-opacity=".76"/><stop offset=".5" stop-color="#9ca5ae" stop-opacity=".22"/><stop offset="1" stop-color="#e2e8f0" stop-opacity=".06"/></linearGradient>
  <linearGradient id="edge" x1="0" y1="0" x2="1" y2="0"><stop stop-color="#fff" stop-opacity=".4"/><stop offset="1" stop-color="#fff" stop-opacity="0"/></linearGradient>
  <filter id="blur"><feGaussianBlur stdDeviation="24"/></filter>
</defs>
<rect width="1200" height="480" fill="url(#surface)"/>
<ellipse cx="890" cy="110" rx="300" ry="210" fill="#cbd5e1" opacity=".16" filter="url(#blur)"/>
<path d="M500 480 740 0h190L690 480Z" fill="#0b1118" opacity=".5"/>
<path d="M630 480 860 0h110L740 480Z" fill="url(#metal)"/>
<path d="M800 480 1010 0h70L875 480Z" fill="#e2e8f0" opacity=".12"/>
<path d="M920 480 1090 0h110v480Z" fill="#0b1118" opacity=".54"/>
<path d="M0 395 420 0h150L150 480H0Z" fill="#dbe2e8" opacity=".07"/>
<path d="M0 430 445 0" stroke="url(#edge)" stroke-width="2" opacity=".5"/>
<path d="M690 480 920 0" stroke="#fff" stroke-opacity=".3" stroke-width="2"/>
<path d="M760 480 990 0" stroke="#fff" stroke-opacity=".13" stroke-width="1"/>
<g fill="none" stroke="#fff" stroke-opacity=".14">
  <path d="M720 80h370v270H720z"/>
  <path d="M755 115h300v200H755z"/>
  <path d="M790 150h230v130H790z"/>
</g>
<circle cx="1030" cy="130" r="96" fill="none" stroke="#fff" stroke-opacity=".14" stroke-width="2"/>
<circle cx="1030" cy="130" r="66" fill="none" stroke="#fff" stroke-opacity=".1"/>
<rect width="1200" height="480" fill="#0b1118" opacity=".13"/>
</svg>